<?xml version="1.0" encoding="UTF-8" standalone="no"?>
<!-- Created with Inkscape (http://www.inkscape.org/) -->

<svg
   xmlns:dc="http://purl.org/dc/elements/1.1/"
   xmlns:cc="http://creativecommons.org/ns#"
   xmlns:rdf="http://www.w3.org/1999/02/22-rdf-syntax-ns#"
   xmlns:svg="http://www.w3.org/2000/svg"
   xmlns="http://www.w3.org/2000/svg"
   version="1.1"
   width="100"
   height="100"
   id="svg2989">
  <defs
     id="defs2991" />
  <metadata
     id="metadata2994">
    <rdf:RDF>
      <cc:Work
         rdf:about="">
        <dc:format>image/svg+xml</dc:format>
        <dc:type
           rdf:resource="http://purl.org/dc/dcmitype/StillImage" />
        <dc:title></dc:title>
      </cc:Work>
    </rdf:RDF>
  </metadata>
  <g
     id="text3093"
     style="font-size:40px;font-style:normal;font-variant:normal;font-weight:normal;font-stretch:normal;line-height:125%;letter-spacing:0px;word-spacing:0px;fill:#ffffff;fill-opacity:1;stroke:none;font-family:Genericons;-inkscape-font-specification:Genericons">
    <path
       d="m 0.42372751,79.226181 c 1.59505049,0.191424 3.19010099,0.287127 4.78515629,0.287109 9.3469912,1.8e-5 17.6731542,-2.871073 24.9785152,-8.613281 -4.370468,-0.06377 -8.278341,-1.387667 -11.723632,-3.97168 -3.413427,-2.583951 -5.758151,-5.901656 -7.03418,-9.953125 1.403633,0.223348 2.663723,0.335002 3.780273,0.334961 1.818343,4.1e-5 3.572899,-0.239217 5.263672,-0.717773 C 15.847866,55.667304 12.003794,53.370431 8.9413056,49.701767 5.8788002,46.001298 4.3475517,41.726562 4.3475556,36.877548 l 0,-0.239258 c 2.743483,1.53131 5.7900294,2.376686 9.1396484,2.536133 -2.7435,-1.8502 -4.928719,-4.242776 -6.555664,-7.177734 -1.595057,-2.934828 -2.3925822,-6.124929 -2.3925781,-9.570313 -4.1e-6,-3.604739 0.9091747,-6.970295 2.727539,-10.096679 5.0403531,6.188881 11.1493961,11.133537 18.3271481,14.833984 7.177702,3.700587 14.881796,5.758203 23.112305,6.172852 -0.350959,-1.563086 -0.526415,-3.094334 -0.526367,-4.59375 -4.8e-5,-5.550707 1.961864,-10.288007 5.885742,-14.211914 3.923771,-3.923742 8.661071,-5.8856538 14.211914,-5.8857427 2.839122,8.89e-5 5.518807,0.5583565 8.039063,1.6748047 2.552005,1.116623 4.769125,2.663821 6.651367,4.641602 4.529861,-0.861245 8.772695,-2.488197 12.728515,-4.88086 -1.499442,4.785239 -4.434335,8.501707 -8.804687,11.149414 3.955639,-0.478439 7.79971,-1.531172 11.532227,-3.158203 -2.679783,4.051508 -6.029389,7.512767 -10.048829,10.383789 0.06371,1.148506 0.09561,2.025783 0.0957,2.631836 -8.9e-5,5.359436 -0.781663,10.734756 -2.344727,16.125977 -1.563235,5.391321 -3.955811,10.559284 -7.177734,15.503906 -3.222081,4.91279 -7.066153,9.267278 -11.532227,13.063477 -4.466208,3.796241 -9.825578,6.826837 -16.078125,9.091796 C 45.085137,87.13765 38.385925,88.270136 31.24013,88.270126 20.042845,88.270136 9.7707194,85.25549 0.42372351,79.226181"
       id="path3130"
       style="font-size:98px;fill:#ffffff" />
  </g>
</svg>
